# xmcd
#
# Track frame offsets:
#	150
#	15157
#	34451
#	50787
#	66866
#	80626
#	96406
#	106127
#	128182
#	140510
#	155815
#	167562
#	179197
#	194002
#	209885
#	231643
#	244154
#	253966
#	269424
#	281804
#	292061
#
# Disc length: 4178 seconds
# Revision: 1
# Processed by: cddbd v1.5.2PL0 Copyright (c) Steve Scherf et al.
# Submitted via: dBpowerAMP V12.0
#
DISCID=62105015
DTITLE=Chip Taylor - Last Chance and Some Of Us
DYEAR=2016
DGENRE=Country
TTITLE0=(I Want The) Real Thing
TTITLE1=Son Of A Rotten Gambler
TTITLE2=I Read It In Rolling Stone
TTITLE3=(The Coalfields Of) Shickshanny
TTITLE4=I Wasn't Born In Tennessee
TTITLE5=(The Likes Of) Louise
TTITLE6=It's Still The Same
TTITLE7=101 In Cash Box
TTITLE8=Family Of One
TTITLE9=Clean Your Own Tables
TTITLE10=Last Chance
TTITLE11=Me As I am
TTITLE12=Early Sunday Morning
TTITLE13=(It's A Long Way) Back To The Heart
TTITLE14=Something 'Bout The Way This Story Ends
TTITLE15=Funny Songs
TTITLE16=Comin' From Behind
TTITLE17=If You're Ever In Warsaw
TTITLE18=If I Can't Be In Austin
TTITLE19=Here Again
TTITLE20=Some Of Us
EXTD=
EXTT0=
EXTT1=
EXTT2=
EXTT3=
EXTT4=
EXTT5=
EXTT6=
EXTT7=
EXTT8=
EXTT9=
EXTT10=
EXTT11=
EXTT12=
EXTT13=
EXTT14=
EXTT15=
EXTT16=
EXTT17=
EXTT18=
EXTT19=
EXTT20=
PLAYORDER=
